<svg width="40" height="40" viewBox="0 0 40 40" fill="none" xmlns="http://www.w3.org/2000/svg">
<path fill-rule="evenodd" clip-rule="evenodd" d="M11.4677 8.91262C12.2658 8.37939 13.204 8.09479 14.1638 8.09479C14.78 8.09479 15.2795 8.59432 15.2795 9.21053C15.2795 9.82673 14.78 10.3263 14.1638 10.3263C13.6453 10.3263 13.1385 10.48 12.7075 10.768C12.2764 11.056 11.9404 11.4654 11.742 11.9444C11.5436 12.4234 11.4917 12.9504 11.5929 13.4589C11.694 13.9674 11.9437 14.4344 12.3103 14.801C12.6768 15.1676 13.1439 15.4172 13.6524 15.5184C14.1608 15.6195 14.6879 15.5676 15.1669 15.3692C15.6458 15.1708 16.0552 14.8348 16.3432 14.4038C16.6313 13.9727 16.785 13.4659 16.785 12.9475C16.785 12.3313 17.2845 11.8318 17.9007 11.8318C18.5169 11.8318 19.0165 12.3313 19.0165 12.9475C19.0165 13.9073 18.7319 14.8455 18.1986 15.6435C17.6654 16.4416 16.9075 17.0635 16.0208 17.4308C15.1341 17.7981 14.1584 17.8942 13.217 17.707C12.2757 17.5197 11.411 17.0576 10.7324 16.3789C10.0537 15.7002 9.59152 14.8356 9.40428 13.8942C9.21704 12.9529 9.31314 11.9772 9.68043 11.0905C10.0477 10.2037 10.6697 9.44584 11.4677 8.91262Z" fill="#8D98AA"/>
<path fill-rule="evenodd" clip-rule="evenodd" d="M38.4061 14.5651C39.0135 14.5651 39.5058 15.0677 39.5058 15.6877V25.0873C39.5058 29.8958 38.5757 33.5538 36.2102 35.9822C33.8431 38.412 30.2757 39.3679 25.5882 39.3679H14.6017C9.91571 39.3679 6.34837 38.4124 3.98095 35.9828C1.61497 33.5547 0.684082 29.8967 0.684082 25.0873V21.308C0.684082 20.688 1.17643 20.1854 1.78377 20.1854C2.3911 20.1854 2.88345 20.688 2.88345 21.308V25.0873C2.88345 29.6775 3.78537 32.5985 5.54027 34.3995C7.29372 36.199 10.1353 37.1227 14.6017 37.1227H25.5882C30.056 37.1227 32.8976 36.1986 34.6506 34.3991C36.4052 32.5979 37.3065 29.6769 37.3065 25.0873V15.6877C37.3065 15.0677 37.7988 14.5651 38.4061 14.5651Z" fill="#8D98AA"/>
<path fill-rule="evenodd" clip-rule="evenodd" d="M4.02671 3.86246C6.42562 1.48243 10.0404 0.546143 14.7922 0.546143H22.2211C22.8336 0.546143 23.3301 1.03876 23.3301 1.64643C23.3301 2.25409 22.8336 2.74671 22.2211 2.74671H14.7922C10.2593 2.74671 7.37456 3.65303 5.59509 5.4185C3.81562 7.18396 2.90211 10.046 2.90211 14.5432C2.90211 15.1509 2.40558 15.6435 1.79309 15.6435C1.1806 15.6435 0.684082 15.1509 0.684082 14.5432C0.684082 9.82886 1.6278 6.24249 4.02671 3.86246Z" fill="#8D98AA"/>
<path fill-rule="evenodd" clip-rule="evenodd" d="M25.4868 7.01643C25.4868 6.42086 26.0036 5.93805 26.6411 5.93805H37.2731C37.9106 5.93805 38.4274 6.42086 38.4274 7.01643C38.4274 7.612 37.9106 8.09481 37.2731 8.09481H26.6411C26.0036 8.09481 25.4868 7.612 25.4868 7.01643Z" fill="#8D98AA"/>
<path fill-rule="evenodd" clip-rule="evenodd" d="M31.9573 0.546143C32.5529 0.546143 33.0357 1.06294 33.0357 1.70045V12.3324C33.0357 12.9699 32.5529 13.4867 31.9573 13.4867C31.3617 13.4867 30.8789 12.9699 30.8789 12.3324V1.70045C30.8789 1.06294 31.3617 0.546143 31.9573 0.546143Z" fill="#8D98AA"/>
<path fill-rule="evenodd" clip-rule="evenodd" d="M30.9323 21.7632L23.3002 28.3699L23.28 28.387C22.3521 29.152 21.1879 29.5702 19.9864 29.5702C18.7848 29.5702 17.6206 29.152 16.6927 28.387C16.6827 28.3788 16.6729 28.3703 16.6632 28.3617L16.074 27.8401C15.5807 27.442 14.9747 27.2095 14.3419 27.1756C13.7051 27.1416 13.074 27.3105 12.5391 27.6581L3.48485 33.7863C2.97946 34.1283 2.29305 33.9951 1.95172 33.4886C1.61039 32.9821 1.74338 32.2942 2.24877 31.9522L11.3257 25.8087C12.2546 25.2016 13.3521 24.9064 14.4595 24.9656C15.5669 25.0248 16.6268 25.4354 17.4859 26.138C17.4971 26.1472 17.508 26.1565 17.5188 26.1661L18.1097 26.6892C18.64 27.1211 19.3027 27.357 19.9864 27.357C20.6719 27.357 21.3364 27.1198 21.8674 26.6856L29.4994 20.079L29.5197 20.0618C30.4476 19.2969 31.6118 18.8786 32.8133 18.8786C34.0148 18.8786 35.179 19.2969 36.1069 20.0618L36.1272 20.079L39.1234 22.6729C39.5849 23.0724 39.6358 23.7712 39.2372 24.2337C38.8385 24.6962 38.1412 24.7472 37.6797 24.3477L34.6943 21.7632C34.1633 21.329 33.4989 21.0918 32.8133 21.0918C32.1277 21.0918 31.4633 21.3291 30.9323 21.7632Z" fill="#8D98AA"/>
</svg>
