<svg width="40" height="40" viewBox="0 0 40 40" fill="none" xmlns="http://www.w3.org/2000/svg">
<path fill-rule="evenodd" clip-rule="evenodd" d="M11.5864 8.97707C12.3844 8.44385 13.3226 8.15924 14.2824 8.15924C14.8986 8.15924 15.3981 8.65877 15.3981 9.27498C15.3981 9.89118 14.8986 10.3907 14.2824 10.3907C13.764 10.3907 13.2572 10.5445 12.8261 10.8325C12.3951 11.1205 12.0591 11.5299 11.8607 12.0089C11.6623 12.4878 11.6104 13.0149 11.7115 13.5233C11.8127 14.0318 12.0623 14.4989 12.4289 14.8655C12.7955 15.232 13.2626 15.4817 13.771 15.5828C14.2795 15.684 14.8065 15.6321 15.2855 15.4337C15.7645 15.2353 16.1739 14.8993 16.4619 14.4682C16.7499 14.0372 16.9036 13.5304 16.9036 13.012C16.9036 12.3958 17.4032 11.8962 18.0194 11.8962C18.6356 11.8962 19.1351 12.3958 19.1351 13.012C19.1351 13.9717 18.8505 14.91 18.3173 15.708C17.7841 16.506 17.0262 17.128 16.1395 17.4953C15.2527 17.8626 14.277 17.9587 13.3357 17.7714C12.3944 17.5842 11.5297 17.122 10.851 16.4433C10.1724 15.7647 9.71018 14.9 9.52293 13.9587C9.33569 13.0173 9.43179 12.0416 9.79908 11.1549C10.1664 10.2682 10.7884 9.51029 11.5864 8.97707Z" fill="#8D98AA"/>
<path fill-rule="evenodd" clip-rule="evenodd" d="M38.5248 14.6295C39.1321 14.6295 39.6245 15.1321 39.6245 15.7521V25.1518C39.6245 29.9603 38.6944 33.6183 36.3288 36.0466C33.9617 38.4765 30.3943 39.4323 25.7069 39.4323H14.7203C10.0344 39.4323 6.46702 38.4769 4.0996 36.0473C1.73362 33.6192 0.802734 29.9612 0.802734 25.1518V21.3724C0.802734 20.7525 1.29508 20.2499 1.90242 20.2499C2.50976 20.2499 3.0021 20.7525 3.0021 21.3724V25.1518C3.0021 29.742 3.90402 32.663 5.65892 34.464C7.41237 36.2635 10.254 37.1872 14.7203 37.1872H25.7069C30.1747 37.1872 33.0162 36.2631 34.7693 34.4635C36.5239 32.6624 37.4251 29.7414 37.4251 25.1518V15.7521C37.4251 15.1321 37.9175 14.6295 38.5248 14.6295Z" fill="#8D98AA"/>
<path fill-rule="evenodd" clip-rule="evenodd" d="M4.14536 3.92691C6.54427 1.54688 10.1591 0.610596 14.9108 0.610596H22.3397C22.9522 0.610596 23.4488 1.10321 23.4488 1.71088C23.4488 2.31855 22.9522 2.81116 22.3397 2.81116H14.9108C10.3779 2.81116 7.49322 3.71748 5.71374 5.48295C3.93427 7.24842 3.02076 10.1104 3.02076 14.6077C3.02076 15.2153 2.52424 15.7079 1.91175 15.7079C1.29926 15.7079 0.802734 15.2153 0.802734 14.6077C0.802734 9.89331 1.74645 6.30694 4.14536 3.92691Z" fill="#8D98AA"/>
<path fill-rule="evenodd" clip-rule="evenodd" d="M25.6055 7.08085C25.6055 6.48528 26.1223 6.00247 26.7598 6.00247H37.3917C38.0292 6.00247 38.5461 6.48528 38.5461 7.08085C38.5461 7.67643 38.0292 8.15924 37.3917 8.15924H26.7598C26.1223 8.15924 25.6055 7.67643 25.6055 7.08085Z" fill="#8D98AA"/>
<path fill-rule="evenodd" clip-rule="evenodd" d="M32.0764 0.610596C32.672 0.610596 33.1548 1.1274 33.1548 1.76491V12.3969C33.1548 13.0344 32.672 13.5512 32.0764 13.5512C31.4809 13.5512 30.998 13.0344 30.998 12.3969V1.76491C30.998 1.1274 31.4809 0.610596 32.0764 0.610596Z" fill="#8D98AA"/>
<path fill-rule="evenodd" clip-rule="evenodd" d="M31.0507 21.8277L23.4186 28.4343L23.3984 28.4515C22.4705 29.2164 21.3063 29.6347 20.1048 29.6347C18.9032 29.6347 17.739 29.2164 16.8112 28.4515C16.8012 28.4432 16.7913 28.4348 16.7816 28.4262L16.1924 27.9046C15.6991 27.5065 15.0931 27.2739 14.4603 27.2401C13.8235 27.2061 13.1924 27.375 12.6575 27.7226L3.60326 33.8507C3.09787 34.1928 2.41146 34.0595 2.07013 33.553C1.72879 33.0466 1.86179 32.3587 2.36718 32.0166L11.4441 25.8731C12.373 25.266 13.4705 24.9708 14.5779 25.03C15.6853 25.0892 16.7452 25.4998 17.6043 26.2025C17.6155 26.2116 17.6265 26.221 17.6372 26.2305L18.2281 26.7537C18.7584 27.1856 19.4211 27.4215 20.1048 27.4215C20.7903 27.4215 21.4548 27.1842 21.9858 26.7501L29.6178 20.1434L29.6381 20.1263C30.566 19.3613 31.7302 18.9431 32.9317 18.9431C34.1332 18.9431 35.2975 19.3613 36.2253 20.1263L36.2456 20.1435L39.2418 22.7373C39.7033 23.1369 39.7543 23.8357 39.3556 24.2982C38.9569 24.7607 38.2596 24.8117 37.7981 24.4122L34.8127 21.8276C34.2817 21.3935 33.6173 21.1563 32.9317 21.1563C32.2461 21.1563 31.5817 21.3935 31.0507 21.8277Z" fill="#8D98AA"/>
</svg>
