<svg width="265" height="44" viewBox="0 0 265 44" fill="none" xmlns="http://www.w3.org/2000/svg">
<path d="M0 4.98761C0.32567 4.46262 0.679497 4.04816 0.967961 3.59233C1.19233 3.23778 1.33526 2.83168 1.66007 2.13684C2.3695 3.47821 2.96409 4.60242 3.6071 5.81818C3.27956 5.93563 3.003 6.03479 2.7189 6.13666C2.7189 17.9253 2.7189 29.7014 2.7189 41.5996C23.8356 41.5996 44.9049 41.5996 66.0297 41.5996C66.0297 42.151 66.0297 42.5811 66.0297 43.1682C65.6349 43.1682 65.2415 43.1682 64.8482 43.1682C43.9788 43.1682 23.1094 43.1603 2.24 43.1906C1.16184 43.1922 0.865717 42.8824 0.868921 41.8163C0.903672 30.2511 0.893419 18.6858 0.880405 7.1205C0.87988 6.65451 1.19636 5.89692 0.0972117 6.00745C0 5.69843 0 5.38938 0 4.98761Z" fill="#278FD9"/>
<path d="M249.887 4.67247C252.297 4.67245 254.597 4.61862 256.893 4.68399C261.215 4.80701 264.659 7.56733 264.572 12.3556C264.551 13.4998 264.636 14.6635 264.456 15.7836C264.079 18.1431 262.624 19.6945 260.256 20.6264C260.844 20.9035 261.326 21.067 261.74 21.3367C263.813 22.6901 265.052 24.5706 264.998 27.0954C264.959 28.9594 264.932 30.861 264.549 32.6716C263.947 35.5135 260.655 37.6455 257.775 37.6288C254.044 37.6072 250.311 37.7529 246.579 37.8245C246.179 37.8322 245.778 37.8255 245.296 37.8255C245.296 26.7713 245.296 15.8169 245.296 4.67247C246.772 4.67247 248.274 4.67247 249.887 4.67247ZM258.767 31.4408C258.974 31.021 259.339 30.6092 259.361 30.1799C259.434 28.7459 259.524 27.2875 259.341 25.873C259.168 24.5351 258.194 23.5351 256.861 23.4173C254.888 23.243 252.889 23.3722 250.862 23.3722C250.862 26.4615 250.862 29.431 250.862 32.4871C252.492 32.4871 254.044 32.4297 255.588 32.5059C256.754 32.5633 257.753 32.2529 258.767 31.4408ZM250.791 17.6128C250.971 17.7478 251.149 17.9971 251.331 18.0003C253.073 18.0302 254.819 18.0758 256.558 18.0002C257.888 17.9425 258.958 16.7171 259.004 15.3497C259.035 14.4238 259.024 13.4958 259.006 12.5691C258.983 11.3145 258.412 10.3128 257.195 10.1386C255.107 9.83996 252.981 9.81467 250.782 9.66872C250.782 12.4435 250.782 14.923 250.791 17.6128Z" fill="#FC5C67"/>
<path d="M85.6697 19.8065C85.1168 18.657 84.5833 17.5897 83.9148 16.2525C83.9148 23.5084 83.9148 30.4801 83.9148 37.5283C82.0966 37.5283 80.3812 37.5283 78.6071 37.5283C78.6071 26.603 78.6071 15.7177 78.6071 4.6776C80.239 4.6776 81.8557 4.65847 83.4708 4.70131C83.6774 4.7068 83.9577 4.99568 84.065 5.21976C85.4069 8.0215 86.7359 10.8296 88.042 13.6482C89.2218 16.1941 90.363 18.758 91.5333 21.3084C92.3204 23.0235 93.1286 24.729 94.0694 26.7428C94.0694 19.2336 94.0694 12.0446 94.0694 4.76407C95.887 4.76407 97.603 4.76407 99.3931 4.76407C99.3931 15.6454 99.3931 26.5312 99.3931 37.5113C97.6305 37.5113 95.836 37.5113 94.0218 37.5113C91.2556 31.6611 88.4723 25.775 85.6697 19.8065Z" fill="#278FD9"/>
<path d="M187.972 35.3245C186.139 37.2211 183.918 37.9655 181.414 38.0549C178.756 38.1499 176.254 37.7707 174.067 36.0685C172.042 34.4919 170.806 32.4263 170.71 29.9232C170.507 24.6434 170.447 19.3547 170.475 14.0704C170.494 10.4451 171.889 7.42578 175.206 5.6092C177.328 4.44714 179.6 4.07268 182.048 4.39413C183.95 4.64387 185.629 5.20313 187.184 6.34079C189.311 7.89713 190.515 10.054 190.638 12.538C190.901 17.8127 190.972 23.1059 190.864 28.3861C190.812 30.9351 190.108 33.4438 187.972 35.3245ZM176.011 19.9147C176.011 22.472 175.955 25.031 176.027 27.5863C176.098 30.05 176.95 32.1946 180.002 32.5352C183.063 32.8768 185.136 30.9566 185.135 28.3193C185.134 23.6122 185.138 18.9052 185.134 14.1982C185.132 11.9697 183.958 10.3969 181.78 9.90568C179.395 9.36764 176.526 10.2804 176.246 13.6226C176.077 15.6382 176.083 17.6685 176.011 19.9147Z" fill="#278FD9"/>
<path d="M202.954 24.0319C202.334 24.0319 201.822 24.0319 201.197 24.0319C201.197 28.5606 201.197 32.9925 201.197 37.5145C199.298 37.5145 197.511 37.5145 195.658 37.5145C195.658 26.5975 195.658 15.7139 195.658 4.75134C197.448 4.75134 199.209 4.75134 201.126 4.75134C201.126 9.4256 201.126 14.1065 201.126 18.849C204.081 18.849 206.88 18.849 209.794 18.849C209.794 14.1617 209.794 9.50738 209.794 4.76336C211.695 4.76336 213.482 4.76336 215.334 4.76336C215.334 15.6825 215.334 26.5662 215.334 37.5278C213.541 37.5278 211.781 37.5278 209.862 37.5278C209.862 33.072 209.862 28.6134 209.862 24.0319C207.492 24.0319 205.277 24.0319 202.954 24.0319Z" fill="#FC5C67"/>
<path d="M226.286 12.6829C226.291 18.0932 226.342 23.3927 226.282 28.691C226.253 31.2272 228.429 32.8891 231.099 32.5668C232.875 32.3526 234.046 31.5802 234.575 29.8868C234.702 29.4782 234.748 29.0287 234.749 28.5979C234.759 21.112 234.756 13.626 234.756 6.14001C234.756 5.70185 234.756 5.26369 234.756 4.75036C236.612 4.75036 238.373 4.75036 240.266 4.75036C240.284 5.12292 240.317 5.51346 240.318 5.90401C240.321 13.6494 240.457 21.3981 240.272 29.139C240.147 34.3769 236.719 37.8457 231.35 38.0513C228.936 38.1438 226.575 37.9855 224.527 36.4921C222.224 34.8126 220.825 32.4942 220.782 29.7C220.657 21.623 220.738 13.5428 220.741 5.46392C220.741 5.24846 220.773 5.03301 220.801 4.68317C222.455 4.68317 224.074 4.64632 225.687 4.72729C225.902 4.73806 226.251 5.34312 226.258 5.67915C226.309 7.97571 226.286 10.2739 226.286 12.6829Z" fill="#FC5C67"/>
<path d="M105.029 6.0332C105.032 5.62883 105.033 5.3323 105.042 5.03601C105.044 4.96575 105.073 4.89631 105.109 4.74957C111.18 4.74957 117.269 4.74957 123.429 4.74957C123.429 6.48046 123.429 8.16697 123.429 9.98857C119.188 9.98857 114.95 9.98857 110.653 9.98857C110.653 12.923 110.653 15.7241 110.653 18.6602C114.226 18.6602 117.797 18.6602 121.43 18.6602C121.43 20.482 121.43 22.1705 121.43 23.9967C117.862 23.9967 114.291 23.9967 110.657 23.9967C110.657 26.8594 110.657 29.5863 110.657 32.4312C114.888 32.4312 119.128 32.4312 123.496 32.4312C123.496 34.0879 123.53 35.6321 123.46 37.1715C123.449 37.4007 122.947 37.795 122.671 37.7968C116.853 37.8333 111.035 37.8244 105.029 37.8244C105.029 27.2306 105.029 16.6859 105.029 6.0332Z" fill="#278FD9"/>
<path d="M134.896 4.45237C137.446 3.94003 139.811 4.28616 142.035 5.35489C144.345 6.46513 145.664 8.46319 146.369 10.8582C146.447 11.1259 146.017 11.7261 145.681 11.8994C144.591 12.4631 143.42 12.8697 142.31 13.3981C141.714 13.6817 141.573 13.4859 141.253 12.9546C140.648 11.9522 139.968 10.8989 139.063 10.1954C137.373 8.88117 133.443 9.88368 132.911 11.7359C132.115 14.5072 132.566 16.6589 135.863 17.8011C137.991 18.5384 140.124 19.2626 142.244 20.0234C144.827 20.9503 146.908 23.8599 146.845 26.5818C146.801 28.4439 146.777 30.3391 146.415 32.1538C145.819 35.142 143.594 36.73 140.856 37.5629C138.057 38.4141 135.137 38.3989 132.389 37.5305C129.262 36.5424 126.954 34.1754 126.417 30.6244C128.1 29.8948 129.791 29.1616 131.42 28.4558C131.896 29.3492 132.242 30.1929 132.754 30.9198C134.5 33.3997 138.791 33.1398 140.471 31.5877C141.561 30.5809 141.513 29.0917 141.459 27.6882C141.369 25.3746 139.686 24.6411 137.864 24.0317C135.864 23.3627 133.824 22.7897 131.882 21.9802C129.312 20.909 127.813 18.8706 127.291 16.1345C126.827 13.702 127.036 11.3471 128.081 9.07215C129.208 6.61773 131.228 5.34443 133.73 4.67735C134.08 4.58382 134.441 4.52764 134.896 4.45237Z" fill="#278FD9"/>
<path d="M51.803 22.8517C51.803 23.1825 51.803 23.5133 51.803 23.9352C48.0779 25.0503 44.3339 26.171 40.7209 27.2525C41.1214 28.7792 41.4546 30.1823 41.8791 31.5572C41.9664 31.8397 42.3609 32.1301 42.672 32.2243C44.8643 32.8881 47.0717 33.5016 49.2731 34.1308C50.0979 32.1912 50.8597 31.7219 53.0144 31.8193C53.9884 31.8634 55.0086 32.7761 55.4089 33.9615C55.9695 35.6221 55.0986 37.2898 53.3785 37.8494C51.6518 38.4112 49.9636 37.5719 49.3818 35.9353C49.2691 35.6182 48.8986 35.2726 48.5744 35.1704C46.3873 34.4809 44.1805 33.8535 41.9248 33.1897C41.6888 35.2758 40.9134 37.041 39.3275 38.4759C37.5956 40.043 34.8819 40.5814 32.7833 39.5261C32.0384 39.1515 31.4682 38.7903 30.6868 39.614C30.3935 39.9231 29.3754 39.8309 28.8738 39.5674C28.4543 39.3471 28.0787 38.6133 28.0727 38.1023C28.0139 33.1334 28.0369 28.1636 28.0368 23.1941C28.0368 20.598 28.0325 18.002 28.0391 15.406C28.0424 14.1384 28.682 13.3177 29.6976 13.365C31.0761 13.4291 31.6347 14.2024 31.6139 15.3977C31.5636 18.2895 31.5975 21.1828 31.5975 24.0755C31.5975 24.4341 31.5975 24.7927 31.5975 25.2465C31.9448 25.0836 32.1963 25.0151 32.3874 24.8681C34.0055 23.6232 35.7228 23.4941 37.4971 24.4555C38.067 24.7643 38.3538 24.5672 38.684 24.1367C41.4899 20.4772 44.3061 16.8257 47.12 13.1708C45.2186 11.3868 44.0979 8.64194 46.7289 5.90329C48.1166 4.45873 50.4277 4.24828 52.2799 5.3419C53.9474 6.3265 54.8831 8.60335 54.4461 10.3927C53.8997 12.6299 51.4165 14.4631 48.9029 13.84C48.5609 13.7552 47.9603 13.9906 47.7333 14.2782C45.8079 16.7169 43.9555 19.213 42.0514 21.6689C41.0639 22.9426 40.0162 24.1697 39.0052 25.4062C39.3825 26.1392 39.8359 26.3069 40.6265 26.0633C44.0711 25.0018 47.5395 24.0175 51.001 23.0115C51.2093 22.951 51.4337 22.9456 51.7326 22.8916C51.8148 22.8686 51.803 22.8517 51.803 22.8517ZM52.6363 11.5463C53.2862 10.525 53.5552 9.48532 53.2026 8.24408C52.7529 6.6615 50.8318 5.46473 49.1641 5.89119C47.2707 6.37533 45.9219 8.34261 46.3614 9.96179C47.0738 12.5862 50.2535 13.9749 52.6363 11.5463ZM54.2875 35.3836C54.2847 35.1621 54.2502 34.9355 54.2845 34.7199C54.4403 33.7425 53.7981 33.3081 53.0675 32.9928C52.2324 32.6325 51.5067 32.9434 50.9029 33.5502C50.3471 34.1089 50.1365 34.7067 50.4647 35.5331C50.8081 36.3977 51.3948 36.8473 52.2421 36.9121C53.2188 36.9868 53.8503 36.3978 54.2875 35.3836Z" fill="#FC5C67"/>
<path d="M10.9106 12.9413C11.2804 12.9292 11.6502 12.9074 12.02 12.9066C14.5567 12.9009 14.519 12.9152 15.3261 15.2702C16.5368 18.8033 17.8117 22.3143 19.0482 25.8386C19.403 26.85 19.7196 27.8748 20.2518 28.8573C20.2518 23.5866 20.2518 18.3158 20.2518 12.9756C21.5865 12.9756 22.8298 12.9756 24.1645 12.9756C24.1645 21.7123 24.1645 30.4681 24.1645 39.3048C23.0172 39.3048 21.8504 39.3048 20.6289 39.3048C18.7898 34.3305 16.9346 29.313 15.0795 24.2954C15.0228 24.3048 14.9661 24.3141 14.9094 24.3234C14.9094 29.2971 14.9094 34.2707 14.9094 39.374C13.5733 39.374 12.3274 39.374 10.9857 39.2522C10.8967 30.4008 10.9037 21.671 10.9106 12.9413Z" fill="#278FD9"/>
<path d="M148.419 6.68622C148.419 5.99059 148.419 5.40431 148.419 4.74579C155.113 4.74579 161.72 4.74579 168.387 4.74579C168.387 6.47621 168.387 8.16503 168.387 9.93489C165.994 9.93489 163.609 9.93489 161.141 9.93489C161.141 19.0666 161.141 28.2416 161.141 37.511C159.347 37.511 157.632 37.511 155.814 37.511C155.814 28.3529 155.814 19.1801 155.814 9.96101C153.341 9.96101 150.968 9.96101 148.419 9.96101C148.419 8.91054 148.419 7.85305 148.419 6.68622Z" fill="#278FD9"/>
<path d="M66.7438 36.4695C66.7438 24.9491 66.7438 13.4286 66.7438 1.79751C45.7364 1.79751 24.8419 1.79751 3.86621 1.79751C3.86621 1.1608 3.86621 0.632618 3.86621 3.03881e-05C4.24201 3.03881e-05 4.60388 3.03881e-05 4.96575 3.03881e-05C25.5816 3.32808e-05 46.1974 -0.000168687 66.8133 0.000431888C68.4553 0.000479952 68.5357 0.0852307 68.5359 1.78493C68.5375 13.2794 68.5387 24.7738 68.4678 36.4046C67.845 36.5171 67.2944 36.4933 66.7438 36.4695Z" fill="#F85762"/>
<path d="M50.6059 23.1441C50.5094 21.1257 51.2509 19.5118 53.182 18.7663C55.4045 17.9083 57.0413 18.8144 58.0398 20.7636C59.0801 22.7947 58.0972 25.0405 56.01 25.9369C54.0215 26.7909 51.9897 26.0081 51.0639 24.0263C50.941 23.7633 50.8441 23.4883 50.6609 23.1695C50.5866 23.1202 50.5983 23.1371 50.6059 23.1441ZM53.8079 25.1221C54.1376 25.1437 54.4706 25.2061 54.7965 25.1799C56.2967 25.0593 57.5326 23.4684 57.2972 21.9884C57.0677 20.5455 55.4711 19.3824 54.0704 19.6378C52.9685 19.8387 51.9029 20.9276 51.7491 22.0099C51.5787 23.2086 52.3202 24.3715 53.8079 25.1221Z" fill="#FC5C67"/>
<path d="M66.6568 36.4786C67.2942 36.4934 67.8447 36.5172 68.4735 36.5076C68.8047 36.4933 69.0577 36.5123 69.5486 36.5492C68.915 37.7979 68.3434 38.9245 67.6931 40.2061C67.0578 39.0753 66.4901 38.1189 65.9777 37.1337C65.639 36.4825 66.1479 36.4994 66.6568 36.4786Z" fill="#F5535C"/>
<path d="M10.8282 12.9863C10.9038 21.6711 10.8969 30.4008 10.8818 39.2305C10.8095 39.0574 10.6896 38.7845 10.6893 38.5114C10.6797 30.2005 10.6814 21.8895 10.6848 13.5786C10.6849 13.3961 10.7244 13.2137 10.8282 12.9863Z" fill="#278FD9"/>
<path d="M258.719 31.5121C257.753 32.2529 256.754 32.5633 255.588 32.5059C254.043 32.4297 252.492 32.4871 250.861 32.4871C250.861 29.4309 250.861 26.4615 250.861 23.3722C252.889 23.3722 254.888 23.243 256.861 23.4173C258.194 23.5351 259.168 24.5351 259.341 25.873C259.524 27.2875 259.434 28.7459 259.361 30.1799C259.339 30.6092 258.974 31.021 258.719 31.5121Z" fill="white"/>
<path d="M250.786 17.5075C250.782 14.9229 250.782 12.4434 250.782 9.66864C252.981 9.8146 255.107 9.83988 257.195 10.1385C258.413 10.3127 258.983 11.3145 259.007 12.5691C259.024 13.4957 259.035 14.4237 259.004 15.3496C258.958 16.717 257.888 17.9424 256.558 18.0002C254.819 18.0757 253.073 18.0301 251.331 18.0002C251.149 17.9971 250.971 17.7478 250.786 17.5075Z" fill="white"/>
<path d="M176.011 19.8035C176.083 17.6685 176.077 15.6382 176.246 13.6226C176.525 10.2804 179.395 9.36767 181.78 9.90572C183.958 10.397 185.132 11.9697 185.133 14.1982C185.137 18.9053 185.133 23.6123 185.135 28.3193C185.136 30.9567 183.063 32.8768 180.002 32.5352C176.95 32.1946 176.097 30.0501 176.027 27.5863C175.954 25.031 176.011 22.4721 176.011 19.8035Z" fill="white"/>
</svg>
