<svg width="25" height="25" viewBox="0 0 25 25" fill="none" xmlns="http://www.w3.org/2000/svg">
<path d="M23.1483 12.0465C23.1483 18.1775 18.1781 23.1476 12.0469 23.1476C5.91569 23.1476 0.945432 18.1775 0.945432 12.0465C0.945432 5.91559 5.91569 0.945432 12.0469 0.945432C18.1781 0.945432 23.1483 5.91559 23.1483 12.0465Z" fill="#278FD9" stroke="white" stroke-width="1.89086"/>
<path d="M14.1608 7.41274C14.1315 7.38344 14.0968 7.36019 14.0585 7.34433C14.0203 7.32848 13.9793 7.32031 13.9378 7.32031C13.8964 7.32031 13.8554 7.32848 13.8172 7.34433C13.7789 7.36019 13.7442 7.38344 13.7149 7.41274L7.31982 13.8086V16.4597C7.31982 16.5433 7.35303 16.6235 7.41213 16.6826C7.47123 16.7417 7.55139 16.7749 7.63497 16.7749H10.2865L16.682 10.3798C16.7113 10.3506 16.7345 10.3158 16.7504 10.2775C16.7662 10.2393 16.7744 10.1983 16.7744 10.1569C16.7744 10.1154 16.7662 10.0744 16.7504 10.0362C16.7345 9.99792 16.7113 9.96316 16.682 9.93389L14.1608 7.41274Z" fill="white"/>
</svg>
