<svg width="265" height="35" viewBox="0 0 265 35" fill="none" xmlns="http://www.w3.org/2000/svg">
<path d="M0 3.9851C0.32567 3.56563 0.679497 3.23447 0.967961 2.87027C1.19233 2.58698 1.33526 2.26251 1.66007 1.70734C2.3695 2.77909 2.96409 3.67733 3.6071 4.64872C3.27956 4.74256 3.003 4.8218 2.7189 4.90319C2.7189 14.3223 2.7189 23.7314 2.7189 33.2381C23.8356 33.2381 44.9049 33.2381 66.0297 33.2381C66.0297 33.6786 66.0297 34.0222 66.0297 34.4913C65.6349 34.4913 65.2415 34.4913 64.8482 34.4913C43.9788 34.4913 23.1094 34.485 2.24 34.5093C1.16184 34.5105 0.865717 34.263 0.868921 33.4111C0.903672 24.1706 0.893419 14.9299 0.880405 5.68928C0.87988 5.31695 1.19636 4.71163 0.0972117 4.79994C0 4.55304 0 4.30611 0 3.9851Z" fill="#278FD9"/>
<path d="M249.887 3.73328C252.297 3.73326 254.597 3.69025 256.893 3.74249C261.215 3.84078 264.659 6.04627 264.572 9.87209C264.551 10.7863 264.636 11.7161 264.456 12.6111C264.078 14.4963 262.624 15.7359 260.256 16.4805C260.844 16.7019 261.326 16.8325 261.739 17.048C263.813 18.1293 265.052 19.6318 264.998 21.6492C264.959 23.1385 264.932 24.6579 264.549 26.1046C263.947 28.3752 260.655 30.0787 257.775 30.0653C254.044 30.0481 250.311 30.1645 246.579 30.2217C246.178 30.2278 245.778 30.2225 245.295 30.2225C245.295 21.3902 245.295 12.6377 245.295 3.73328C246.772 3.73328 248.274 3.73328 249.887 3.73328ZM258.766 25.1211C258.974 24.7857 259.339 24.4567 259.361 24.1137C259.434 22.9679 259.524 21.8027 259.341 20.6725C259.168 19.6035 258.194 18.8045 256.861 18.7104C254.888 18.5711 252.889 18.6744 250.861 18.6744C250.861 21.1427 250.861 23.5153 250.861 25.9571C252.492 25.9571 254.043 25.9113 255.588 25.9721C256.754 26.018 257.753 25.77 258.766 25.1211ZM250.791 14.0726C250.971 14.1805 251.149 14.3797 251.331 14.3822C253.073 14.4061 254.818 14.4425 256.558 14.3821C257.887 14.336 258.958 13.3569 259.004 12.2643C259.034 11.5246 259.023 10.7831 259.006 10.0427C258.983 9.04029 258.412 8.23988 257.195 8.10069C255.107 7.8621 252.981 7.84189 250.781 7.72527C250.781 9.94231 250.781 11.9234 250.791 14.0726Z" fill="#FC5C67"/>
<path d="M85.6695 15.8253C85.1167 14.9068 84.5832 14.0541 83.9147 12.9857C83.9147 18.7832 83.9147 24.3535 83.9147 29.985C82.0965 29.985 80.3811 29.985 78.6069 29.985C78.6069 21.2557 78.6069 12.5584 78.6069 3.73735C80.2388 3.73735 81.8556 3.72206 83.4707 3.7563C83.6773 3.76068 83.9576 3.99149 84.0649 4.17054C85.4067 6.40913 86.7357 8.65277 88.0418 10.9048C89.2216 12.9391 90.3629 14.9876 91.5332 17.0253C92.3203 18.3957 93.1285 19.7584 94.0693 21.3674C94.0693 15.3676 94.0693 9.62355 94.0693 3.80644C95.8869 3.80644 97.6028 3.80644 99.393 3.80644C99.393 12.5006 99.393 21.1983 99.393 29.9714C97.6304 29.9714 95.8358 29.9714 94.0217 29.9714C91.2555 25.2971 88.4722 20.5941 85.6695 15.8253Z" fill="#278FD9"/>
<path d="M187.971 28.2242C186.139 29.7396 183.918 30.3344 181.414 30.4058C178.755 30.4817 176.254 30.1787 174.067 28.8187C172.042 27.559 170.806 25.9085 170.709 23.9086C170.506 19.69 170.447 15.4644 170.475 11.2422C170.494 8.34561 171.888 5.93317 175.205 4.48172C177.327 3.55324 179.6 3.25405 182.048 3.51089C183.95 3.71043 185.629 4.15728 187.184 5.06626C189.311 6.30978 190.514 8.03309 190.638 10.0178C190.901 14.2323 190.972 18.4615 190.864 22.6805C190.811 24.7171 190.108 26.7216 187.971 28.2242ZM176.011 15.9118C176.011 17.9551 175.954 19.9997 176.027 22.0414C176.097 24.0099 176.95 25.7234 180.002 25.9955C183.063 26.2685 185.136 24.7343 185.135 22.627C185.133 18.8661 185.137 15.1052 185.133 11.3443C185.132 9.56375 183.958 8.30712 181.78 7.91461C179.395 7.48471 176.525 8.21397 176.246 10.8844C176.077 12.4949 176.083 14.1171 176.011 15.9118Z" fill="#278FD9"/>
<path d="M202.954 19.2015C202.334 19.2015 201.822 19.2015 201.197 19.2015C201.197 22.8199 201.197 26.361 201.197 29.9741C199.298 29.9741 197.511 29.9741 195.658 29.9741C195.658 21.2514 195.658 12.5554 195.658 3.79633C197.448 3.79633 199.209 3.79633 201.126 3.79633C201.126 7.53105 201.126 11.2711 201.126 15.0603C204.081 15.0603 206.88 15.0603 209.794 15.0603C209.794 11.3152 209.794 7.59639 209.794 3.80593C211.695 3.80593 213.482 3.80593 215.334 3.80593C215.334 12.5303 215.334 21.2263 215.334 29.9847C213.541 29.9847 211.781 29.9847 209.862 29.9847C209.862 26.4245 209.862 22.862 209.862 19.2015C207.492 19.2015 205.277 19.2015 202.954 19.2015Z" fill="#FC5C67"/>
<path d="M226.286 10.1336C226.291 14.4564 226.342 18.6907 226.282 22.9241C226.253 24.9505 228.429 26.2784 231.099 26.0208C232.874 25.8497 234.046 25.2325 234.575 23.8795C234.702 23.553 234.748 23.1939 234.749 22.8497C234.759 16.8684 234.756 10.8871 234.756 4.90586C234.756 4.55577 234.756 4.20569 234.756 3.79554C236.612 3.79554 238.373 3.79554 240.266 3.79554C240.283 4.09321 240.317 4.40525 240.317 4.7173C240.321 10.9059 240.457 17.097 240.272 23.282C240.147 27.4671 236.719 30.2387 231.35 30.403C228.935 30.4768 226.575 30.3504 224.527 29.1572C222.224 27.8153 220.825 25.9628 220.782 23.7303C220.657 17.2768 220.738 10.8207 220.74 4.36567C220.74 4.19352 220.773 4.02137 220.8 3.74185C222.455 3.74185 224.074 3.71241 225.687 3.7771C225.902 3.78571 226.251 4.26915 226.258 4.53764C226.309 6.37259 226.285 8.20886 226.286 10.1336Z" fill="#FC5C67"/>
<path d="M105.029 4.82054C105.032 4.49745 105.033 4.26052 105.042 4.02379C105.044 3.96765 105.073 3.91216 105.109 3.79492C111.18 3.79492 117.269 3.79492 123.429 3.79492C123.429 5.17789 123.429 6.52542 123.429 7.98088C119.188 7.98088 114.95 7.98088 110.653 7.98088C110.653 10.3255 110.653 12.5635 110.653 14.9095C114.226 14.9095 117.797 14.9095 121.43 14.9095C121.43 16.3651 121.43 17.7143 121.43 19.1734C117.862 19.1734 114.291 19.1734 110.657 19.1734C110.657 21.4606 110.657 23.6394 110.657 25.9125C114.889 25.9125 119.128 25.9125 123.496 25.9125C123.496 27.2362 123.53 28.47 123.46 29.7C123.449 29.8832 122.947 30.1982 122.671 30.1996C116.853 30.2288 111.035 30.2217 105.029 30.2217C105.029 21.7573 105.029 13.332 105.029 4.82054Z" fill="#278FD9"/>
<path d="M134.896 3.55744C137.446 3.14808 139.811 3.42463 142.035 4.27855C144.345 5.16563 145.664 6.76208 146.369 8.67568C146.447 8.88954 146.017 9.36917 145.682 9.50764C144.591 9.95799 143.42 10.2829 142.31 10.7051C141.714 10.9316 141.573 10.7752 141.253 10.3507C140.648 9.54979 139.968 8.70818 139.063 8.14608C137.373 7.09604 133.443 7.89705 132.911 9.37695C132.115 11.5912 132.566 13.3104 135.863 14.2231C137.991 14.8122 140.124 15.3908 142.244 15.9987C144.827 16.7393 146.908 19.0641 146.845 21.2388C146.801 22.7267 146.777 24.2409 146.415 25.6909C145.819 28.0784 143.594 29.3472 140.856 30.0127C138.057 30.6928 135.137 30.6807 132.389 29.9868C129.262 29.1973 126.954 27.3061 126.417 24.4689C128.1 23.8859 129.791 23.3001 131.42 22.7361C131.896 23.45 132.242 24.1241 132.754 24.7048C134.5 26.6863 138.791 26.4787 140.471 25.2385C141.561 24.4341 141.514 23.2442 141.459 22.1229C141.369 20.2743 139.687 19.6882 137.864 19.2013C135.865 18.6668 133.824 18.209 131.882 17.5622C129.312 16.7063 127.813 15.0776 127.291 12.8914C126.827 10.9478 127.036 9.06631 128.081 7.24864C129.208 5.28756 131.228 4.2702 133.73 3.7372C134.08 3.66247 134.441 3.61758 134.896 3.55744Z" fill="#278FD9"/>
<path d="M51.8028 18.2585C51.8028 18.5228 51.8028 18.7871 51.8028 19.1242C48.0777 20.0151 44.3336 20.9106 40.7206 21.7748C41.1212 22.9946 41.4543 24.1156 41.8789 25.2142C41.9661 25.4399 42.3606 25.6719 42.6718 25.7472C44.864 26.2776 47.0715 26.7678 49.2729 27.2705C50.0977 25.7207 50.8595 25.3458 53.0141 25.4236C53.9882 25.4588 55.0084 26.1881 55.4086 27.1353C55.9693 28.462 55.0983 29.7945 53.3782 30.2417C51.6516 30.6905 49.9634 30.0199 49.3816 28.7123C49.2689 28.459 48.8984 28.1828 48.5742 28.1011C46.387 27.5503 44.1803 27.0489 41.9245 26.5185C41.6886 28.1853 40.9131 29.5957 39.3272 30.7423C37.5953 31.9943 34.8817 32.4245 32.7831 31.5813C32.0381 31.282 31.4679 30.9934 30.6865 31.6515C30.3933 31.8985 29.3752 31.8248 28.8735 31.6143C28.454 31.4383 28.0785 30.852 28.0725 30.4437C28.0136 26.4736 28.0367 22.5027 28.0366 18.532C28.0365 16.4578 28.0323 14.3836 28.0389 12.3094C28.0421 11.2966 28.6818 10.6408 29.6973 10.6786C31.0759 10.7299 31.6344 11.3477 31.6136 12.3027C31.5633 14.6133 31.5973 16.9251 31.5973 19.2364C31.5973 19.5228 31.5973 19.8093 31.5973 20.172C31.9446 20.0418 32.1961 19.9871 32.3871 19.8696C34.0052 18.875 35.7226 18.7718 37.4968 19.54C38.0667 19.7867 38.3536 19.6292 38.6837 19.2852C41.4896 16.3613 44.3058 13.4438 47.1197 10.5235C45.2184 9.09806 44.0977 6.90493 46.7286 4.71675C48.1164 3.56255 50.4275 3.3944 52.2797 4.2682C53.9472 5.05489 54.8829 6.87409 54.4459 8.30381C53.8995 10.0913 51.4163 11.556 48.9027 11.0581C48.5607 10.9904 47.9601 11.1785 47.733 11.4083C45.8077 13.3568 43.9552 15.3512 42.0512 17.3134C41.0636 18.3311 40.0159 19.3116 39.005 20.2996C39.3823 20.8852 39.8356 21.0192 40.6263 20.8246C44.0709 19.9765 47.5392 19.19 51.0008 18.3862C51.2091 18.3378 51.4334 18.3335 51.7324 18.2904C51.8145 18.272 51.8028 18.2585 51.8028 18.2585ZM52.6361 9.22552C53.2859 8.40952 53.555 7.57878 53.2023 6.58704C52.7527 5.32256 50.8316 4.36634 49.1638 4.70708C47.2705 5.09391 45.9217 6.66577 46.3612 7.95949C47.0736 10.0564 50.2533 11.166 52.6361 9.22552ZM54.2873 28.2715C54.2845 28.0945 54.2499 27.9135 54.2843 27.7412C54.4401 26.9602 53.7978 26.6131 53.0672 26.3613C52.2322 26.0734 51.5064 26.3217 50.9027 26.8066C50.3468 27.253 50.1362 27.7306 50.4645 28.391C50.8078 29.0818 51.3946 29.441 52.2418 29.4927C53.2185 29.5524 53.8501 29.0818 54.2873 28.2715Z" fill="#FC5C67"/>
<path d="M10.9105 10.3401C11.2803 10.3304 11.65 10.313 12.0199 10.3124C14.5566 10.3078 14.5189 10.3193 15.326 12.2009C16.5367 15.0238 17.8116 17.8291 19.0481 20.645C19.4029 21.4531 19.7195 22.2719 20.2517 23.057C20.2517 18.8457 20.2517 14.6343 20.2517 10.3675C21.5864 10.3675 22.8297 10.3675 24.1644 10.3675C24.1644 17.3481 24.1644 24.344 24.1644 31.4045C23.0171 31.4045 21.8503 31.4045 20.6288 31.4045C18.7897 27.4301 16.9345 23.4211 15.0793 19.4121C15.0227 19.4195 14.966 19.427 14.9093 19.4344C14.9093 23.4084 14.9093 27.3823 14.9093 31.4598C13.5731 31.4598 12.3273 31.4598 10.9855 31.3625C10.8966 24.2902 10.9035 17.3151 10.9105 10.3401Z" fill="#278FD9"/>
<path d="M148.419 5.34233C148.419 4.78653 148.419 4.31809 148.419 3.79193C155.113 3.79193 161.72 3.79193 168.387 3.79193C168.387 5.17454 168.387 6.5239 168.387 7.93802C165.994 7.93802 163.61 7.93802 161.141 7.93802C161.141 15.2342 161.141 22.5651 161.141 29.9713C159.347 29.9713 157.632 29.9713 155.815 29.9713C155.815 22.654 155.815 15.3249 155.815 7.95889C153.341 7.95889 150.968 7.95889 148.419 7.95889C148.419 7.11956 148.419 6.27463 148.419 5.34233Z" fill="#278FD9"/>
<path d="M66.7438 29.1391C66.7438 19.9343 66.7438 10.7295 66.7438 1.43621C45.7364 1.43621 24.8419 1.43621 3.86621 1.43621C3.86621 0.927476 3.86621 0.505461 3.86621 2.428e-05C4.24201 2.428e-05 4.60388 2.428e-05 4.96575 2.428e-05C25.5816 2.65913e-05 46.1974 -0.000134781 66.8133 0.000345078C68.4553 0.000383481 68.5357 0.0680992 68.5359 1.42616C68.5375 10.6102 68.5387 19.7942 68.4678 29.0872C67.845 29.1771 67.2944 29.1581 66.7438 29.1391Z" fill="#F85762"/>
<path d="M50.6059 18.492C50.5094 16.8794 51.2509 15.5899 53.182 14.9942C55.4046 14.3086 57.0414 15.0326 58.0398 16.5901C59.0802 18.2129 58.0973 20.0073 56.0101 20.7235C54.0216 21.4058 51.9897 20.7804 51.0639 19.1969C50.9411 18.9869 50.8442 18.7671 50.6609 18.5124C50.5867 18.473 50.5984 18.4865 50.6059 18.492ZM53.8079 20.0725C54.1377 20.0897 54.4707 20.1396 54.7966 20.1187C56.2968 20.0223 57.5327 18.7512 57.2973 17.5687C57.0678 16.4158 55.4711 15.4865 54.0704 15.6905C52.9686 15.8511 51.903 16.7211 51.7491 17.5858C51.5787 18.5436 52.3203 19.4728 53.8079 20.0725Z" fill="#FC5C67"/>
<path d="M66.6568 29.1464C67.2942 29.1581 67.8447 29.1772 68.4735 29.1695C68.8047 29.1581 69.0577 29.1733 69.5486 29.2028C68.915 30.2004 68.3434 31.1006 67.6931 32.1246C67.0578 31.2211 66.4901 30.4569 65.9777 29.6697C65.639 29.1494 66.1479 29.163 66.6568 29.1464Z" fill="#F5535C"/>
<path d="M10.8282 10.376C10.9038 17.3152 10.8969 24.2902 10.8818 31.3451C10.8095 31.2068 10.6896 30.9887 10.6893 30.7705C10.6797 24.1301 10.6814 17.4897 10.6848 10.8492C10.6849 10.7035 10.7244 10.5577 10.8282 10.376Z" fill="#278FD9"/>
<path d="M258.719 25.1782C257.753 25.77 256.754 26.0181 255.588 25.9722C254.043 25.9113 252.492 25.9572 250.861 25.9572C250.861 23.5153 250.861 21.1428 250.861 18.6744C252.889 18.6744 254.888 18.5712 256.861 18.7104C258.194 18.8046 259.168 19.6036 259.341 20.6725C259.524 21.8027 259.434 22.968 259.361 24.1137C259.339 24.4567 258.974 24.7858 258.719 25.1782Z" fill="white"/>
<path d="M250.786 13.9885C250.782 11.9234 250.782 9.94225 250.782 7.72522C252.981 7.84184 255.107 7.86204 257.195 8.10064C258.413 8.23983 258.983 9.04023 259.007 10.0427C259.024 10.783 259.035 11.5245 259.004 12.2643C258.958 13.3569 257.888 14.3359 256.558 14.3821C254.819 14.4424 253.073 14.406 251.331 14.3821C251.149 14.3796 250.971 14.1804 250.786 13.9885Z" fill="white"/>
<path d="M176.011 15.8229C176.083 14.1171 176.077 12.4949 176.246 10.8844C176.526 8.21399 179.395 7.48473 181.78 7.91463C183.958 8.30715 185.132 9.56377 185.134 11.3443C185.138 15.1052 185.134 18.8661 185.135 22.6271C185.136 24.7343 183.063 26.2685 180.002 25.9956C176.95 25.7234 176.098 24.0099 176.027 22.0414C175.955 19.9997 176.011 17.9551 176.011 15.8229Z" fill="white"/>
</svg>
